<svg width="323" height="314" viewBox="0 0 323 314" fill="none" xmlns="http://www.w3.org/2000/svg">
<path d="M57.3634 0H265.355C296.889 0 322.385 25.4957 322.385 57.0299V256.97C322.385 288.504 296.889 314 265.355 314H57.3634C25.8292 314 0.333496 288.504 0.333496 256.97V57.0299C0.333496 25.4957 25.8292 0 57.3634 0Z" fill="#001E36"/>
<path d="M72.7947 220.203V82.1231C72.7947 81.1838 73.1973 80.647 74.1366 80.647C76.4178 80.647 78.5648 80.647 81.6511 80.5129C84.8716 80.3787 88.2263 80.3787 91.8494 80.2445C95.4725 80.1103 99.364 80.1103 103.524 79.9761C107.684 79.8419 111.709 79.8419 115.735 79.8419C126.738 79.8419 135.863 81.1838 143.378 84.0017C150.087 86.2829 156.26 90.0402 161.359 95.0052C165.653 99.2992 169.008 104.533 171.155 110.303C173.167 115.938 174.241 121.709 174.241 127.747C174.241 139.287 171.557 148.815 166.19 156.329C160.822 163.844 153.308 169.48 144.585 172.7C135.461 176.055 125.396 177.262 114.393 177.262C111.173 177.262 109.025 177.262 107.684 177.128C106.342 176.994 104.463 176.994 101.914 176.994V220.068C102.048 221.008 101.377 221.813 100.437 221.947C100.303 221.947 100.169 221.947 99.9007 221.947H74.405C73.3315 221.947 72.7947 221.41 72.7947 220.203ZM102.048 106.545V151.633C103.926 151.767 105.671 151.901 107.281 151.901H114.393C119.626 151.901 124.86 151.096 129.825 149.486C134.119 148.278 137.876 145.728 140.828 142.374C143.646 139.019 144.988 134.456 144.988 128.552C145.122 124.392 144.049 120.233 141.902 116.609C139.62 113.121 136.4 110.437 132.508 108.961C127.543 106.948 122.176 106.143 116.674 106.277C113.185 106.277 110.099 106.277 107.549 106.411C104.866 106.277 102.987 106.411 102.048 106.545Z" fill="#31A8FF"/>
<path d="M257.974 143.447C253.948 141.3 249.654 139.824 245.092 138.885C240.127 137.811 235.162 137.14 230.063 137.14C227.379 137.006 224.561 137.409 222.012 138.08C220.267 138.482 218.791 139.421 217.852 140.763C217.181 141.837 216.778 143.179 216.778 144.386C216.778 145.594 217.315 146.802 218.12 147.875C219.328 149.351 220.938 150.559 222.682 151.498C225.769 153.109 228.989 154.585 232.21 155.927C239.456 158.342 246.434 161.697 252.875 165.722C257.303 168.54 260.926 172.298 263.476 176.86C265.623 181.154 266.696 185.851 266.562 190.681C266.696 196.988 264.818 203.295 261.329 208.528C257.571 213.896 252.338 218.056 246.3 220.471C239.724 223.289 231.673 224.765 222.012 224.765C215.839 224.765 209.8 224.228 203.762 223.021C199.065 222.215 194.369 220.739 190.075 218.727C189.135 218.19 188.465 217.251 188.599 216.177V192.828C188.599 192.426 188.733 191.889 189.135 191.621C189.538 191.352 189.941 191.486 190.343 191.755C195.577 194.841 201.078 196.988 206.982 198.33C212.082 199.672 217.449 200.343 222.817 200.343C227.916 200.343 231.539 199.672 233.954 198.464C236.101 197.525 237.577 195.244 237.577 192.828C237.577 190.95 236.504 189.205 234.357 187.461C232.21 185.716 227.782 183.704 221.206 181.154C214.363 178.739 208.056 175.518 202.152 171.492C197.992 168.54 194.503 164.649 191.953 160.086C189.806 155.792 188.733 151.096 188.867 146.399C188.867 140.629 190.477 135.127 193.429 130.162C196.784 124.795 201.749 120.501 207.519 117.817C213.826 114.597 221.743 113.121 231.271 113.121C236.772 113.121 242.408 113.523 247.91 114.328C251.935 114.865 255.827 115.939 259.45 117.415C259.987 117.549 260.524 118.086 260.792 118.622C260.926 119.159 261.06 119.696 261.06 120.233V142.105C261.06 142.642 260.792 143.179 260.389 143.447C259.182 143.715 258.511 143.715 257.974 143.447Z" fill="#31A8FF"/>
</svg>
